<?xml version="1.0" standalone="no"?><!DOCTYPE svg PUBLIC "-//W3C//DTD SVG 1.1//EN" "http://www.w3.org/Graphics/SVG/1.1/DTD/svg11.dtd"><svg t="1534697473216" class="icon" style="fill: #f4f4f4;" viewBox="0 0 1024 1024" version="1.1" xmlns="http://www.w3.org/2000/svg" p-id="3837" xmlns:xlink="http://www.w3.org/1999/xlink" width="200" height="200"><defs><style type="text/css"></style></defs><path d="M512 849.691045c-8.142447 0-15.950274-3.234671-21.707394-8.991792l-255.82655-255.82655c-11.988032-11.989055-11.988032-31.425733 0-43.414789 11.989055-11.990079 31.426757-11.990079 43.415812 0l234.118132 234.118132 234.119155-234.118132c11.988032-11.990079 31.426757-11.990079 43.414789 0 11.989055 11.989055 11.989055 31.425733 0 43.414789l-255.82655 255.82655C527.950274 846.456375 520.141424 849.691045 512 849.691045z" p-id="3838"></path><path d="M512 849.691045c-16.954137 0-30.699186-13.745049-30.699186-30.699186l0-613.983719c0-16.954137 13.745049-30.699186 30.699186-30.699186s30.699186 13.745049 30.699186 30.699186l0 613.983719C542.699186 835.945997 528.954137 849.691045 512 849.691045z" p-id="3839"></path></svg>