<?xml version="1.0" encoding="UTF-8"?>
<svg width="158px" height="181px" viewBox="0 0 158 181" version="1.1" xmlns="http://www.w3.org/2000/svg" xmlns:xlink="http://www.w3.org/1999/xlink">
    <!-- Generator: Sketch 51 (57462) - http://www.bohemiancoding.com/sketch -->
    <title>Combined Shape</title>
    <desc>Created with Sketch.</desc>
    <defs>
        <linearGradient x1="7.03753197%" y1="113.652849%" x2="84.13248%" y2="0%" id="linearGradient-1">
            <stop stop-color="#372D6E" offset="0%"></stop>
            <stop stop-color="#9b90dd" offset="100%"></stop>
        </linearGradient>
    </defs>
    <g id="Page-1" stroke="none" stroke-width="1" fill="none" fill-rule="evenodd" opacity="0.25">
        <g id="logo1" transform="translate(-1269.000000, -736.000000)" fill="url(#linearGradient-1)">
            <g id="Group-2" transform="translate(1269.000000, 736.000000)">
                <g id="Group-Copy-5">
                    <path d="M52.2096554,165.341627 L43.0872814,174.464001 C35.6673199,181.883962 23.6371853,181.883962 16.2172238,174.464001 C8.79726222,167.044039 8.79726222,155.013904 16.2172238,147.593943 L20.1293896,143.681777 C7.61196128,129.703383 0,111.240626 0,91 C0,47.3695048 35.3695048,12 79,12 C87.6932261,12 96.0584976,13.4041408 103.881388,15.9979959 L113.342138,6.53724553 C120.7621,-0.882716016 132.792235,-0.882716016 140.212196,6.53724553 C147.632158,13.9572071 147.632158,25.9873417 140.212196,33.4073032 L136.642045,36.9774545 C149.888216,51.1054292 158,70.1054102 158,91 C158,134.630495 122.630495,170 79,170 C69.595584,170 60.5749773,168.356717 52.2096554,165.341627 Z M45.218372,162.433415 C37.7739902,158.906668 30.968949,154.250485 25.0245225,148.686139 L21.874078,151.836584 C17.1877865,156.522875 17.1877865,164.120855 21.874078,168.807146 C26.5603695,173.493438 34.1583493,173.493438 38.8446408,168.807146 L45.218372,162.433415 Z M111.020291,18.7585881 C118.592905,22.1200637 125.538653,26.6372719 131.633664,32.0863404 L134.555342,29.1646625 C139.241633,24.478371 139.241633,16.8803913 134.555342,12.1940998 C129.86905,7.50780828 122.271071,7.50780828 117.584779,12.1940998 L111.020291,18.7585881 Z M57.2270216,160.32426 C64.3843695,162.708727 72.0413883,164 80,164 C119.764502,164 152,131.764502 152,92 C152,61.113543 132.551797,34.7694572 105.233264,24.5456149 L36.2674993,93.5113796 C31.5812078,98.1976711 31.5812078,105.795651 36.2674993,110.481942 C40.9537908,115.168234 48.5517705,115.168234 53.238062,110.481942 L86.8487622,76.8712422 L86.9228955,76.9507404 L98.3685091,65.5051268 C105.788471,58.0851653 117.818605,58.0851653 125.238567,65.5051268 C132.321475,72.5880348 132.643218,83.8717921 126.203795,91.3363493 C126.077755,91.4697975 125.949415,91.6018669 125.818775,91.7325072 L57.2270216,160.32426 Z M50.1236739,157.528113 L120.161921,87.4898665 C124.848212,82.803575 124.848212,75.2055953 120.161921,70.5193038 C115.475629,65.8330123 107.877649,65.8330123 103.191358,70.5193038 L68.9703057,104.740356 L68.9263163,104.693183 L57.4807027,116.138797 C53.29996,120.319539 47.6556227,122.144662 42.1970019,121.614165 C37.9676894,121.203138 33.8498639,119.378015 30.610645,116.138797 C23.1906835,108.718835 23.1906835,96.6887005 30.610645,89.2687389 L97.6900945,22.1892895 C92.0303722,20.7595499 86.1038873,20 80,20 C40.235498,20 8,52.235498 8,92 C8,121.106239 25.2709194,146.178638 50.1236739,157.528113 Z" id="Combined-Shape"></path>
                </g>
            </g>
        </g>
    </g>
</svg>